<svg xmlns="http://www.w3.org/2000/svg" xmlns:xlink="http://www.w3.org/1999/xlink" viewBox="0 0 1207.57 366.71"><defs><style>.cls-1,.cls-10,.cls-4{isolation:isolate;}.cls-10,.cls-2,.cls-4,.cls-5,.cls-7{fill-rule:evenodd;}.cls-2{fill:url(#linear-gradient);}.cls-3{fill:#c6d5ef;}.cls-10,.cls-4{opacity:0.8;}.cls-4{fill:url(#linear-gradient-2);}.cls-10,.cls-5,.cls-9{fill:#fff;}.cls-6{opacity:0.2;}.cls-7{fill:#645fa7;}.cls-8{mix-blend-mode:lighten;}.cls-10,.cls-9{stroke:#fff;stroke-miterlimit:10;stroke-width:0.25px;}.cls-11{mix-blend-mode:screen;fill:url(#radial-gradient);}</style><linearGradient id="linear-gradient" x1="186.01" y1="527.57" x2="186.01" y2="909.15" gradientTransform="translate(792.2 902) rotate(180)" gradientUnits="userSpaceOnUse"><stop offset="0" stop-color="#2f4f8c"/><stop offset="0.27" stop-color="#344387"/><stop offset="0.71" stop-color="#262859"/><stop offset="1" stop-color="#120f21"/></linearGradient><linearGradient id="linear-gradient-2" x1="-285.85" y1="567.58" x2="-285.85" y2="567.88" gradientTransform="translate(792.2 902) rotate(180)" gradientUnits="userSpaceOnUse"><stop offset="0" stop-color="#c4cfeb"/><stop offset="1" stop-color="#45395b"/></linearGradient><radialGradient id="radial-gradient" cx="-1020.22" cy="746.49" r="39.05" gradientTransform="translate(-2401.19 1838.2) rotate(180) scale(2.39 2.37)" gradientUnits="userSpaceOnUse"><stop offset="0" stop-color="#27348b"/><stop offset="0.58" stop-color="#101639" stop-opacity="0.4"/><stop offset="1" stop-color="#010101" stop-opacity="0"/></radialGradient></defs><title>newbg</title><g class="cls-1"><g id="Layer_1" data-name="Layer 1"><polygon class="cls-2" points="-2.92 374.43 1215.29 374.43 1215.29 -7.15 -2.92 -7.15 -2.92 374.43"/><circle class="cls-3" cx="961.4" cy="357.5" r="0.3"/><circle class="cls-3" cx="856.4" cy="55.25" r="0.3"/><circle class="cls-3" cx="1141.8" cy="361.7" r="0.3"/><circle class="cls-3" cx="971" cy="62.95" r="0.3"/><path class="cls-3" d="M1090.2,348.1a.3.3,0,1,1-.3-.3A.27.27,0,0,1,1090.2,348.1Z"/><path class="cls-3" d="M1150.1,340.3a.3.3,0,1,0,.3-.3C1150.2,339.9,1150.1,340.1,1150.1,340.3Z"/><circle class="cls-3" cx="1137.6" cy="346.6" r="0.3"/><polygon class="cls-4" points="1078 334.4 1078.1 334.4 1078.1 334.1 1078 334.4"/><path class="cls-5" d="M3.71,51a30,30,0,0,0,59.1,7.2,28.41,28.41,0,0,0,.9-7.2c0-1.1-.1-2.2-.2-3.3A30,30,0,0,0,3.71,51Z"/><g class="cls-6"><path class="cls-7" d="M41.31,71.3A7.1,7.1,0,0,1,40,73.5a3.6,3.6,0,0,1-2.1,1.1,2.5,2.5,0,0,1-1.3.3,7.5,7.5,0,0,0-1.5,0c-1,.2-1.5,1.1-2.5,1.1a6.55,6.55,0,0,1-2.5-.5c-.8-.3-1.8-.6-2.6-.9s-1.6-.5-2.5-.8-1.4-.9-2.6-.6c-.1.4,0,1.1-.5,1.3a2.5,2.5,0,0,1-1.4-.4c-1-.4-1.9-.6-2.9-1a6.94,6.94,0,0,1-1.3-.5c-.5-.3-.9-.6-1.4-.9-.9-.6-1.7-1.2-2.6-1.8a12.39,12.39,0,0,1-3.8-4.4,23.58,23.58,0,0,1-1.2-2.8,2.15,2.15,0,0,1,.5-2.6c1.5.6,2.1-.3,1.6-1.9a10.24,10.24,0,0,1-.2-4.6,6.89,6.89,0,0,0,.3-.8,4.1,4.1,0,0,1,.1-1.1,5.66,5.66,0,0,0,.3-1.8,8.13,8.13,0,0,1,.1-2.2,3.54,3.54,0,0,0,.3-1.1,3.33,3.33,0,0,1,.1-1.4,3.25,3.25,0,0,1,2.5-1.9c.7-.2,1-.5,1.5,0a2.32,2.32,0,0,1,.4,1.8,6.22,6.22,0,0,1-1.5,3.3,2.75,2.75,0,0,0-.8,1.5c0,.3.5.4.4.7s-.5.5-.7.8c-1.7,2.3,1.5,4.3,3.1,5.5.9.7,2.2,1,2.6,2.2s-.5,2.2-.9,3.3-.9,3-.2,4a3,3,0,0,0,1.3.9,7.55,7.55,0,0,1,1.4,1.1,4.55,4.55,0,0,0,3.2.8,3.12,3.12,0,0,0,1.8-.7,4.92,4.92,0,0,1,1.5-1c.4-.1.6,0,1-.1s.6-.3,1.1-.4c.8-.2,1.3.3,1.9.7a2.62,2.62,0,0,0,1.7.5c.6-.2,1.3-.5,1.9-.7,1.4-.3,3.6-.4,4.7.6.6.5.8,1.1,1.3,1.6C40.21,70,41.21,70.2,41.31,71.3Z"/><path class="cls-7" d="M13.71,39.7c1.3,0,2.6-1,3.6-1.7a7.82,7.82,0,0,0,2.3-2.5c.1-.3.2-.5.3-.8,0-.1.3-.9.3-1a2.48,2.48,0,0,0-.8-1.5c-1.1-1.1-2.7-.3-3.8.4a20.14,20.14,0,0,0-2.9,2.2,8,8,0,0,0-1.3,1.3,4.45,4.45,0,0,0-.3,2.3c0,1.2-1.6,2.6.4,2.9.8.1,3.1-.5,3.3-1.5h-1.1Z"/><path class="cls-7" d="M37.71,78.6c.3.4.7.1,1.1,0a4.25,4.25,0,0,1,1.1-.2,9,9,0,0,0,2.3-.2c.7-.2,1.4-.3,2.1-.5.3-.1.5-.2.8-.3h.5a.1.1,0,0,0,.1-.1h.4a10.55,10.55,0,0,0,1.9-.5c.3-.1.6-.1.8-.3a9,9,0,0,1,.9-.5,15.81,15.81,0,0,0,2.9-2.2c.8-.8,1.7-1.6,2.6-2.4l.6-.6c.2-.2.5-.3.7-.5a15.76,15.76,0,0,0,1.2-1.5,33,33,0,0,0,2.2-3c.3-.5.5-1.1.8-1.6a3.7,3.7,0,0,0,.5-1.1c.1-.3.3-.6.4-.9s.1-.8.2-1.1.2-.3.2-.4a1.63,1.63,0,0,1,0-.7c0-.2.2-.3.2-.4a1.63,1.63,0,0,1,0-.7c0-.2.2-.3.2-.4s-.1-.5,0-.7.2-.3.2-.4v-.6c0-.5.2-.8.2-1.3a6.55,6.55,0,0,0,0-1.4c0-.2-.2-.3-.2-.4s.1-.5,0-.7c-.5-.1-.3.9-.3,1.2,0,.5-.2.7-.2,1.2s-.2.6-.6,1.1c-.1.2-.5.5-.5.8a1.27,1.27,0,0,1-.1.6c0,.2-.1.3-.1.5a1.21,1.21,0,0,1-.3,1,2.62,2.62,0,0,1-.9.5c-.4.1-.8.1-1.2.2-.2,0-.3.2-.4.2s-.5-.1-.7,0a1.16,1.16,0,0,0-.5.7,1.64,1.64,0,0,0,.1,1c.1.1.1.2.2.4s.3.3.3.4c.3.6-.2,1.7-.3,2.2-.1.2-.4.8-.2,1s1.2,0,1.4-.1c.1.2-.1.7-.2.9a4.18,4.18,0,0,1-.4,1,3.84,3.84,0,0,1-1.5,1.3c-.4.2-.6.3-.7-.2a1.49,1.49,0,0,0-.1-.6l-.3-.3c-.1-.2.1-.4,0-.7,0-.1-.1-.2-.2-.4-.1-.4.1-.9,0-1.3-.1-.9-.8-1.3-1.6-1.5a20.16,20.16,0,0,1-2.3-.7,3.34,3.34,0,0,0-2.6-.2,8.71,8.71,0,0,0-1.9,1,4.12,4.12,0,0,1-.8.3c-.3.1-.7.3-1,.4a9.5,9.5,0,0,0-1.8.6,6.1,6.1,0,0,0-1.6,1.2,2.29,2.29,0,0,0-.4,2.1c.2.5.9.9,1.2,1.2.6.7.4,1.1,0,1.8-.1.2-.4.6-.5.8a5.65,5.65,0,0,0,0,1.3,1.61,1.61,0,0,0,.3.9c.2.3.6.4.7.7a.66.66,0,0,1-.1.6.1.1,0,0,1-.1.1c-.1.1,0,.2-.1.4-.2.4-.5.4-.9.4a1.42,1.42,0,0,1-1.1-.1c-.2-.1-.3-.2-.5-.2s-.4.1-.6.1c-.4.1-.7-.2-1.1-.2a1.09,1.09,0,0,0-.9.4c-.2.2-.6.6-.5,1A1.37,1.37,0,0,1,37.71,78.6Z"/><path class="cls-7" d="M41.11,64.9c-.1,0-.2-.1-.3-.1a4.3,4.3,0,0,1-1,.9c-.5.3-.8.1-.9-.4-.1-.3.1-.5.1-.7s0-.5.3-.7,1.4-.1,1.2.5Z"/><path class="cls-7" d="M58.61,41.5c.1.1.2.2.3.2a2.43,2.43,0,0,0,0-1.2c0-.2-.1-.3-.2-.5v-.5a2.61,2.61,0,0,0-.3-.8c-.1-.4-.1-.5-.2-.9s-.2-.7-.3-1-.3-.5-.4-.8a8.64,8.64,0,0,0-1-1.6,9.66,9.66,0,0,0-2.2-2.7,6.07,6.07,0,0,0-1-.7l-.3-.3c-.1-.1-.3-.1-.4-.2-.3-.2-1.1-1-1.5-.8.3.7.7,1.4,1,2,.4.8,1.1.7,1.6,1.3.9.8-.6,1.2-1.1,1.5s-.5.8-.5,1.3a3.4,3.4,0,0,1-.2,1.4,1.42,1.42,0,0,0-.2.6v.4a.22.22,0,0,1-.2.2,2.08,2.08,0,0,0,.3,1.3,4.49,4.49,0,0,0,.6,1.2c.4.3.7.2,1.2.2.3,0,.4-.1.7-.1s.4-.2.6-.2a1.27,1.27,0,0,0,.6-.1c.2,0,.2-.2.5-.1s.6.4.9.5c.5.1,1-.1,1.4,0S58.81,41.3,58.61,41.5Z"/><path class="cls-7" d="M24.61,64.7a2.52,2.52,0,0,1,1.5,1c.4.6-.4,1.3-.8,1.6-.2.1-.3.2-.5.3s-.4.2-.5.2c-.3,0-.4-.8-.6-1-.4-.8.2-1.4.8-1.8v-.3Z"/><path class="cls-7" d="M22,65.9l.1.1c.2-.4-.1-.8-.1-1.2a1.14,1.14,0,0,0-.8.7c0,.4.7.5,1,.5Z"/><path class="cls-7" d="M17.31,48.3c.2-.7,1.1.1,1.3.3a1.76,1.76,0,0,1,.4.5,2.77,2.77,0,0,1,.1.9c0,.3.1.6.1.9a3.08,3.08,0,0,1-.1,1A2.37,2.37,0,0,1,18,53.2a2,2,0,0,1-.8.4c-.4.2-.4.3-.7.1a3.17,3.17,0,0,1-1.2-.8,6.89,6.89,0,0,1-1.1-1.3c-.4-.6,0-1.1.3-1.6A8,8,0,0,1,16,48.3c.1-.1.4-.5.5-.5C17,47.7,17.31,48,17.31,48.3Z"/><path class="cls-7" d="M17.41,45.8h.1c0-.2.4-.7.1-.9s-.5.3-.6.4a.74.74,0,0,0-.1.9c.2.2.7,0,.6-.3h-.1Z"/><path class="cls-7" d="M23.41,75.5a1.69,1.69,0,0,1,1-.3l.9.3a7.61,7.61,0,0,1,2.1.8c.8.5,2.3,2,.9,2.7a6.45,6.45,0,0,1-2,.3c-.3,0-.5-.1-.9-.1a3,3,0,0,1-1-.2,6.36,6.36,0,0,1-1.8-.6,4.12,4.12,0,0,1-1.3-1,1.15,1.15,0,0,1-.1-1.7c.3-.3.6-.2,1-.2Z"/><path class="cls-7" d="M19.71,75.3c.1.1.1.1.3.1.1-.3-.6-.8-.8-.9-.4-.2-1.1-.6-1.2,0-.1.4.3.9.7,1.1a.88.88,0,0,0,1.2-.5Z"/><path class="cls-7" d="M9.11,42.7c.4-.1.5.7.5,1s.1.5-.1.6-.5.1-.7.1c-.4-.1-.4-.7-.4-1.1s.3-.9.8-.8Z"/><path class="cls-7" d="M55.71,42.2v-.1c.1,0,.2-.1.3-.2h.5c.3,0,.5-.1.8-.1h.5c.2,0,.2.1.4.1s.5,0,.8.2a3.45,3.45,0,0,1,.9,1.2,3.37,3.37,0,0,1,.5,1.7.84.84,0,0,1-.2.7c-.2.2-.2.4-.4.7a1,1,0,0,1-1.1.8,3.14,3.14,0,0,1-1.6-.6,2.65,2.65,0,0,1-.6-.5,1,1,0,0,1-.5-.4,4.94,4.94,0,0,1-.5-1.6,3.4,3.4,0,0,1-.1-1,.1.1,0,0,1,.1-.1v-.3A1.69,1.69,0,0,0,55.71,42.2Z"/><path class="cls-7" d="M54.21,43.3c.3,0-.1-1-.5-.9s-.6.6-.7.9a.76.76,0,1,0,1.5.2Z"/><path class="cls-7" d="M49.71,45.4c0,.3.3.5.4.7a.62.62,0,0,1-.2.7.82.82,0,0,1-.6.4c-.2,0-.4-.4-.5-.5-.4-.3-1-.5-.5-1.1a1.08,1.08,0,0,1,.7-.3c.4-.1.6.1.9.3Z"/><path class="cls-7" d="M59.11,57.5c.5.1.5-.6.4-.9-.2,0-.4-.2-.7-.2a2.61,2.61,0,0,0-.8.3,1,1,0,0,0-.4,1.2c.1.3.8.7,1.1.5s.4-.9.4-1.2Z"/><path class="cls-7" d="M20.81,28.3c.1-.2.2-.4,0-.5a.59.59,0,0,0-.7-.1,3.11,3.11,0,0,0-.9.7,1.69,1.69,0,0,0-.3.6.76.76,0,0,0,.2.5c.2.3.6.5.8.8.4.4.6.2.9-.2s.4-.6.7-.9a3.21,3.21,0,0,0,.3-.5.76.76,0,0,0-.2-.5,2.54,2.54,0,0,0-1-.8Z"/><path class="cls-7" d="M17.51,29.4h.1c.1.4,0,.6-.4.7s-.8-.1-.8-.3.2-.5.4-.7c.4-.3.7-.3.7.2Z"/><path class="cls-7" d="M19.61,64.1a1.42,1.42,0,0,0,.2.6,2.07,2.07,0,0,1,.2.6,1.45,1.45,0,0,1,.2.7c0,.2.2.4.2.7.1.5-.5.9-1,.8a2.59,2.59,0,0,1-1.1-.7c-.2-.2-.3-.1-.4-.4a1.07,1.07,0,0,1-.2-.6,1.48,1.48,0,0,1-.1-.7v-.8c.3-1.3,1.7-.5,2,.4Z"/><path class="cls-7" d="M15.51,73c.1-.5-.8-.8-1.1-.8s-.4,0-.6.4-.2.5,0,.8a1.84,1.84,0,0,0,1.6.5c.6-.2.3-1-.2-1.1Z"/><path class="cls-7" d="M21.31,63.2a.43.43,0,0,0,.4-.4v-.4c0-.1.1-.2.1-.3v-.4c0-.1.1-.3.1-.4,0-.3-.1-.6,0-.8s.3-.5.1-.8-.4-.2-.7-.2a2.54,2.54,0,0,0-.7.2,3.55,3.55,0,0,0-.9.4c-.4.3-.8.5-.9,1a4.33,4.33,0,0,0,.1,1.6,2.07,2.07,0,0,0,.6,1,1.93,1.93,0,0,0,1.5-.1Z"/><path class="cls-7" d="M18.21,62.9h0c.1.6-.7.5-.8,0s.7-.7.8-.1Z"/></g><g class="cls-8"><circle class="cls-9" cx="1096" cy="61.65" r="0.3"/><circle class="cls-9" cx="889.9" cy="55.95" r="0.3"/><circle class="cls-9" cx="974.6" cy="61.95" r="0.3"/><circle class="cls-9" cx="1038.7" cy="53.05" r="0.3"/><circle class="cls-9" cx="981.7" cy="74.55" r="0.3"/><circle class="cls-9" cx="1129.6" cy="49.65" r="0.3"/><circle class="cls-9" cx="831" cy="64.15" r="0.3"/><circle class="cls-9" cx="818.8" cy="50.25" r="0.3"/><circle class="cls-9" cx="987.9" cy="35.45" r="0.3"/><circle class="cls-9" cx="747.97" cy="141" r="0.3"/><circle class="cls-9" cx="742.27" cy="123.1" r="0.3"/><circle class="cls-9" cx="755.97" cy="145.9" r="0.3"/><circle class="cls-9" cx="1158.37" cy="117.3" r="0.3"/><circle class="cls-9" cx="865.77" cy="134" r="0.3"/><circle class="cls-9" cx="876.87" cy="125.4" r="0.3"/><path class="cls-9" d="M984.27,140.7a.3.3,0,1,1-.3-.3A.32.32,0,0,1,984.27,140.7Z"/><circle class="cls-9" cx="637.27" cy="119" r="0.3"/><circle class="cls-9" cx="670.77" cy="119.7" r="0.3"/><circle class="cls-9" cx="755.47" cy="125.7" r="0.3"/><circle class="cls-9" cx="1101.67" cy="172.1" r="0.3"/><circle class="cls-9" cx="1140.07" cy="182.2" r="0.3"/><circle class="cls-9" cx="896.77" cy="151.5" r="0.3"/><circle class="cls-9" cx="922.67" cy="127.3" r="0.3"/><circle class="cls-9" cx="751.87" cy="126.7" r="0.3"/><path class="cls-9" d="M871.07,113.7a.3.3,0,1,1-.3-.3A.27.27,0,0,1,871.07,113.7Z"/><circle class="cls-9" cx="819.57" cy="116.8" r="0.3"/><circle class="cls-9" cx="788.77" cy="140.1" r="0.3"/><circle class="cls-9" cx="762.57" cy="138.3" r="0.3"/><circle class="cls-9" cx="910.47" cy="113.4" r="0.3"/><circle class="cls-9" cx="611.87" cy="127.9" r="0.3"/><circle class="cls-9" cx="599.67" cy="114" r="0.3"/><path class="cls-9" d="M931,105.9a.3.3,0,1,0,.3-.3C931.07,105.5,931,105.7,931,105.9Z"/><circle class="cls-9" cx="918.47" cy="112.2" r="0.3"/><circle class="cls-9" cx="999.37" cy="107.4" r="0.3"/><circle class="cls-9" cx="1033.57" cy="112.5" r="0.3"/><circle class="cls-9" cx="1145.37" cy="97.2" r="0.3"/><circle class="cls-9" cx="768.77" cy="99.2" r="0.3"/><polygon class="cls-10" points="858.87 100 858.97 100 858.97 99.7 858.87 100"/><path class="cls-9" d="M1115.47,218.2a2,2,0,0,0-.1-.7C1115.37,217.7,1115.47,218,1115.47,218.2Z"/><circle class="cls-9" cx="1127.57" cy="140.7" r="0.3"/><ellipse class="cls-9" cx="532.93" cy="135.25" rx="0.26" ry="0.3"/><ellipse class="cls-9" cx="537.92" cy="117.35" rx="0.26" ry="0.3"/><ellipse class="cls-9" cx="525.92" cy="140.15" rx="0.26" ry="0.3"/><ellipse class="cls-9" cx="128.62" cy="108.45" rx="0.26" ry="0.3"/><ellipse class="cls-9" cx="173.39" cy="111.55" rx="0.26" ry="0.3"/><ellipse class="cls-9" cx="429.73" cy="128.25" rx="0.26" ry="0.3"/><ellipse class="cls-9" cx="420" cy="119.65" rx="0.26" ry="0.3"/><path class="cls-9" d="M325.91,135c0,.2.09.3.26.3s.27-.1.27-.3-.09-.3-.27-.3A.3.3,0,0,0,325.91,135Z"/><ellipse class="cls-9" cx="629.91" cy="113.25" rx="0.26" ry="0.3"/><ellipse class="cls-9" cx="600.56" cy="113.95" rx="0.26" ry="0.3"/><ellipse class="cls-9" cx="526.36" cy="119.95" rx="0.26" ry="0.3"/><ellipse class="cls-9" cx="122.14" cy="137.85" rx="0.26" ry="0.3"/><ellipse class="cls-9" cx="223.06" cy="166.35" rx="0.26" ry="0.3"/><ellipse class="cls-9" cx="189.42" cy="176.45" rx="0.26" ry="0.3"/><ellipse class="cls-9" cx="402.57" cy="145.75" rx="0.26" ry="0.3"/><ellipse class="cls-9" cx="379.88" cy="121.55" rx="0.26" ry="0.3"/><ellipse class="cls-9" cx="529.51" cy="120.95" rx="0.26" ry="0.3"/><path class="cls-9" d="M425.08,108q0,.3.27.3c.17,0,.26-.1.26-.3s-.09-.3-.26-.3S425.08,107.75,425.08,108Z"/><ellipse class="cls-9" cx="470.2" cy="111.05" rx="0.26" ry="0.3"/><ellipse class="cls-9" cx="497.19" cy="134.35" rx="0.26" ry="0.3"/><ellipse class="cls-9" cx="520.14" cy="132.55" rx="0.26" ry="0.3"/><ellipse class="cls-9" cx="390.57" cy="107.65" rx="0.26" ry="0.3"/><ellipse class="cls-9" cx="652.17" cy="122.15" rx="0.26" ry="0.3"/><ellipse class="cls-9" cx="662.85" cy="108.25" rx="0.26" ry="0.3"/><path class="cls-9" d="M372.61,100.15q0,.3-.27.3c-.17,0-.26-.1-.26-.3s.09-.3.26-.3S372.61,100,372.61,100.15Z"/><ellipse class="cls-9" cx="383.56" cy="106.45" rx="0.26" ry="0.3"/><ellipse class="cls-9" cx="312.68" cy="101.65" rx="0.26" ry="0.3"/><ellipse class="cls-9" cx="282.72" cy="106.75" rx="0.26" ry="0.3"/><ellipse class="cls-9" cx="184.78" cy="91.45" rx="0.26" ry="0.3"/><ellipse class="cls-9" cx="514.71" cy="93.45" rx="0.26" ry="0.3"/><polygon class="cls-10" points="435.77 94.25 435.69 94.25 435.69 93.95 435.77 94.25"/><path class="cls-9" d="M211,212.45a2.15,2.15,0,0,1,.09-.7C211.06,212,211,212.25,211,212.45Z"/><ellipse class="cls-9" cx="200.37" cy="134.95" rx="0.26" ry="0.3"/><g id="Layer_207" data-name="Layer 207"><circle class="cls-9" cx="199.47" cy="60" r="0.3"/><circle class="cls-9" cx="193.77" cy="42.1" r="0.3"/><circle class="cls-9" cx="88.77" cy="38" r="0.3"/><circle class="cls-9" cx="122.27" cy="38.6" r="0.3"/><circle class="cls-9" cx="206.87" cy="44.7" r="0.3"/><circle class="cls-9" cx="203.37" cy="45.7" r="0.3"/><circle class="cls-9" cx="240.27" cy="59.1" r="0.3"/><circle class="cls-9" cx="214.07" cy="57.3" r="0.3"/><circle class="cls-9" cx="63.37" cy="46.9" r="0.3"/><circle class="cls-9" cx="51.17" cy="33" r="0.3"/><circle class="cls-9" cx="220.27" cy="18.2" r="0.3"/><circle class="cls-9" cx="270.47" cy="91.3" r="0.3"/><circle class="cls-9" cx="264.77" cy="73.4" r="0.3"/><circle class="cls-9" cx="159.77" cy="69.3" r="0.3"/><circle class="cls-9" cx="193.27" cy="69.9" r="0.3"/><circle class="cls-9" cx="277.87" cy="76" r="0.3"/><circle class="cls-9" cx="274.37" cy="77" r="0.3"/><circle class="cls-9" cx="311.27" cy="90.4" r="0.3"/><circle class="cls-9" cx="285.07" cy="88.6" r="0.3"/><circle class="cls-9" cx="134.37" cy="78.2" r="0.3"/><circle class="cls-9" cx="122.17" cy="64.3" r="0.3"/><circle class="cls-9" cx="291.27" cy="49.4" r="0.3"/><circle class="cls-9" cx="338.47" cy="58.6" r="0.3"/><circle class="cls-9" cx="332.77" cy="40.6" r="0.3"/><circle class="cls-9" cx="227.77" cy="36.5" r="0.3"/><circle class="cls-9" cx="261.27" cy="37.2" r="0.3"/><circle class="cls-9" cx="345.87" cy="43.2" r="0.3"/><circle class="cls-9" cx="342.37" cy="44.2" r="0.3"/><circle class="cls-9" cx="379.27" cy="57.7" r="0.3"/><circle class="cls-9" cx="353.07" cy="55.8" r="0.3"/><circle class="cls-9" cx="202.37" cy="45.4" r="0.3"/><circle class="cls-9" cx="78.97" cy="95.3" r="0.3"/><circle class="cls-9" cx="190.17" cy="31.5" r="0.3"/><circle class="cls-9" cx="359.27" cy="16.7" r="0.3"/><circle class="cls-9" cx="495.87" cy="70.7" r="0.3"/><circle class="cls-9" cx="490.17" cy="52.8" r="0.3"/><circle class="cls-9" cx="385.17" cy="48.7" r="0.3"/><circle class="cls-9" cx="418.57" cy="49.3" r="0.3"/><circle class="cls-9" cx="503.27" cy="55.4" r="0.3"/><circle class="cls-9" cx="499.77" cy="56.4" r="0.3"/><circle class="cls-9" cx="536.67" cy="69.8" r="0.3"/><circle class="cls-9" cx="510.47" cy="68" r="0.3"/><circle class="cls-9" cx="359.77" cy="57.6" r="0.3"/><circle class="cls-9" cx="347.57" cy="43.7" r="0.3"/><circle class="cls-9" cx="516.67" cy="28.8" r="0.3"/><circle class="cls-9" cx="599.07" cy="57.1" r="0.3"/><circle class="cls-9" cx="593.37" cy="39.2" r="0.3"/><circle class="cls-9" cx="488.37" cy="35.1" r="0.3"/><circle class="cls-9" cx="521.77" cy="35.8" r="0.3"/><circle class="cls-9" cx="606.47" cy="41.8" r="0.3"/><circle class="cls-9" cx="602.97" cy="42.8" r="0.3"/><circle class="cls-9" cx="639.87" cy="56.2" r="0.3"/><circle class="cls-9" cx="613.67" cy="54.4" r="0.3"/><circle class="cls-9" cx="462.97" cy="44" r="0.3"/><circle class="cls-9" cx="450.77" cy="30.1" r="0.3"/><circle class="cls-9" cx="619.87" cy="15.3" r="0.3"/><circle class="cls-9" cx="730.37" cy="96.6" r="0.3"/><circle class="cls-9" cx="724.67" cy="78.6" r="0.3"/><circle class="cls-9" cx="619.67" cy="74.5" r="0.3"/><circle class="cls-9" cx="653.17" cy="75.2" r="0.3"/><circle class="cls-9" cx="737.77" cy="81.2" r="0.3"/><circle class="cls-9" cx="734.27" cy="82.2" r="0.3"/><circle class="cls-9" cx="771.17" cy="95.7" r="0.3"/><circle class="cls-9" cx="744.97" cy="93.8" r="0.3"/><circle class="cls-9" cx="594.27" cy="83.4" r="0.3"/><circle class="cls-9" cx="582.07" cy="69.5" r="0.3"/><circle class="cls-9" cx="751.17" cy="54.7" r="0.3"/><circle class="cls-9" cx="744.47" cy="43.9" r="0.3"/><circle class="cls-9" cx="738.77" cy="25.9" r="0.3"/><circle class="cls-9" cx="633.77" cy="21.8" r="0.3"/><circle class="cls-9" cx="667.27" cy="22.5" r="0.3"/><circle class="cls-9" cx="751.87" cy="28.5" r="0.3"/><circle class="cls-9" cx="748.37" cy="29.6" r="0.3"/><circle class="cls-9" cx="785.27" cy="43" r="0.3"/><circle class="cls-9" cx="759.07" cy="41.1" r="0.3"/><circle class="cls-9" cx="608.37" cy="30.7" r="0.3"/><circle class="cls-9" cx="596.17" cy="16.8" r="0.3"/><circle class="cls-9" cx="765.27" cy="2" r="0.3"/></g></g><g class="cls-8"><circle class="cls-9" cx="1076.91" cy="259.55" r="0.3"/><circle class="cls-9" cx="870.81" cy="265.25" r="0.3"/><circle class="cls-9" cx="955.51" cy="259.25" r="0.3"/><circle class="cls-9" cx="1019.61" cy="268.15" r="0.3"/><circle class="cls-9" cx="962.61" cy="246.65" r="0.3"/><circle class="cls-9" cx="1110.51" cy="271.55" r="0.3"/><circle class="cls-9" cx="811.91" cy="257.05" r="0.3"/><circle class="cls-9" cx="799.71" cy="270.95" r="0.3"/><circle class="cls-9" cx="968.81" cy="285.75" r="0.3"/><circle class="cls-9" cx="728.88" cy="180.2" r="0.3"/><circle class="cls-9" cx="723.18" cy="198.1" r="0.3"/><circle class="cls-9" cx="736.88" cy="175.3" r="0.3"/><circle class="cls-9" cx="1190.38" cy="207" r="0.3"/><circle class="cls-9" cx="1139.28" cy="203.9" r="0.3"/><circle class="cls-9" cx="846.68" cy="187.2" r="0.3"/><circle class="cls-9" cx="857.78" cy="195.8" r="0.3"/><path class="cls-9" d="M965.18,180.5a.3.3,0,1,0-.3.3A.32.32,0,0,0,965.18,180.5Z"/><circle class="cls-9" cx="618.18" cy="202.2" r="0.3"/><circle class="cls-9" cx="651.68" cy="201.5" r="0.3"/><circle class="cls-9" cx="736.38" cy="195.5" r="0.3"/><circle class="cls-9" cx="1197.78" cy="177.6" r="0.3"/><circle class="cls-9" cx="1082.58" cy="149.1" r="0.3"/><circle class="cls-9" cx="1120.98" cy="139" r="0.3"/><circle class="cls-9" cx="877.68" cy="169.7" r="0.3"/><circle class="cls-9" cx="903.58" cy="193.9" r="0.3"/><circle class="cls-9" cx="732.78" cy="194.5" r="0.3"/><path class="cls-9" d="M852,207.5a.3.3,0,1,0-.3.3A.27.27,0,0,0,852,207.5Z"/><circle class="cls-9" cx="800.48" cy="204.4" r="0.3"/><circle class="cls-9" cx="769.68" cy="181.1" r="0.3"/><circle class="cls-9" cx="743.48" cy="182.9" r="0.3"/><circle class="cls-9" cx="891.38" cy="207.8" r="0.3"/><circle class="cls-9" cx="592.78" cy="193.3" r="0.3"/><circle class="cls-9" cx="580.58" cy="207.2" r="0.3"/><path class="cls-9" d="M911.88,215.3a.3.3,0,1,1,.3.3C912,215.7,911.88,215.5,911.88,215.3Z"/><circle class="cls-9" cx="899.38" cy="209" r="0.3"/><circle class="cls-9" cx="980.28" cy="213.8" r="0.3"/><circle class="cls-9" cx="1014.48" cy="208.7" r="0.3"/><circle class="cls-9" cx="1126.28" cy="224" r="0.3"/><circle class="cls-9" cx="749.68" cy="222" r="0.3"/><polygon class="cls-10" points="839.78 221.2 839.88 221.2 839.88 221.5 839.78 221.2"/><path class="cls-9" d="M1096.38,103a2,2,0,0,1-.1.7C1096.28,103.5,1096.38,103.2,1096.38,103Z"/><circle class="cls-9" cx="1108.48" cy="180.5" r="0.3"/><ellipse class="cls-9" cx="513.84" cy="185.95" rx="0.26" ry="0.3"/><ellipse class="cls-9" cx="518.83" cy="203.85" rx="0.26" ry="0.3"/><ellipse class="cls-9" cx="506.83" cy="181.05" rx="0.26" ry="0.3"/><ellipse class="cls-9" cx="109.52" cy="212.75" rx="0.26" ry="0.3"/><ellipse class="cls-9" cx="154.29" cy="209.65" rx="0.26" ry="0.3"/><ellipse class="cls-9" cx="410.63" cy="192.95" rx="0.26" ry="0.3"/><ellipse class="cls-9" cx="400.91" cy="201.55" rx="0.26" ry="0.3"/><path class="cls-9" d="M306.82,186.25c0-.2.09-.3.26-.3s.26.1.26.3-.08.3-.26.3A.3.3,0,0,1,306.82,186.25Z"/><ellipse class="cls-9" cx="610.82" cy="207.95" rx="0.26" ry="0.3"/><ellipse class="cls-9" cx="581.47" cy="207.25" rx="0.26" ry="0.3"/><ellipse class="cls-9" cx="507.27" cy="201.25" rx="0.26" ry="0.3"/><ellipse class="cls-9" cx="103.04" cy="183.35" rx="0.26" ry="0.3"/><ellipse class="cls-9" cx="203.97" cy="154.85" rx="0.26" ry="0.3"/><ellipse class="cls-9" cx="170.32" cy="144.75" rx="0.26" ry="0.3"/><ellipse class="cls-9" cx="383.48" cy="175.45" rx="0.26" ry="0.3"/><ellipse class="cls-9" cx="360.78" cy="199.65" rx="0.26" ry="0.3"/><ellipse class="cls-9" cx="510.42" cy="200.25" rx="0.26" ry="0.3"/><path class="cls-9" d="M406,213.25c0-.2.09-.3.26-.3s.27.1.27.3-.09.3-.27.3S406,213.45,406,213.25Z"/><ellipse class="cls-9" cx="451.11" cy="210.15" rx="0.26" ry="0.3"/><ellipse class="cls-9" cx="478.09" cy="186.85" rx="0.26" ry="0.3"/><ellipse class="cls-9" cx="501.05" cy="188.65" rx="0.26" ry="0.3"/><ellipse class="cls-9" cx="371.47" cy="213.55" rx="0.26" ry="0.3"/><ellipse class="cls-9" cx="633.07" cy="199.05" rx="0.26" ry="0.3"/><ellipse class="cls-9" cx="643.76" cy="212.95" rx="0.26" ry="0.3"/><path class="cls-9" d="M353.51,221.05c0-.2-.08-.3-.26-.3s-.26.1-.26.3.09.3.26.3S353.51,221.25,353.51,221.05Z"/><ellipse class="cls-9" cx="364.46" cy="214.75" rx="0.26" ry="0.3"/><ellipse class="cls-9" cx="293.59" cy="219.55" rx="0.26" ry="0.3"/><ellipse class="cls-9" cx="263.63" cy="214.45" rx="0.26" ry="0.3"/><ellipse class="cls-9" cx="165.68" cy="229.75" rx="0.26" ry="0.3"/><ellipse class="cls-9" cx="495.61" cy="227.75" rx="0.26" ry="0.3"/><polygon class="cls-10" points="416.68 226.95 416.59 226.95 416.59 227.25 416.68 226.95"/><path class="cls-9" d="M191.88,108.75a2.41,2.41,0,0,0,.08.7C192,109.25,191.88,109,191.88,108.75Z"/><ellipse class="cls-9" cx="181.28" cy="186.25" rx="0.26" ry="0.3"/><g id="Layer_207-2" data-name="Layer 207"><circle class="cls-9" cx="180.38" cy="261.2" r="0.3"/><circle class="cls-9" cx="174.68" cy="279.1" r="0.3"/><circle class="cls-9" cx="69.68" cy="283.2" r="0.3"/><circle class="cls-9" cx="103.18" cy="282.6" r="0.3"/><circle class="cls-9" cx="187.78" cy="276.5" r="0.3"/><circle class="cls-9" cx="184.28" cy="275.5" r="0.3"/><circle class="cls-9" cx="221.18" cy="262.1" r="0.3"/><circle class="cls-9" cx="194.98" cy="263.9" r="0.3"/><circle class="cls-9" cx="44.28" cy="274.3" r="0.3"/><circle class="cls-9" cx="32.08" cy="288.2" r="0.3"/><circle class="cls-9" cx="201.18" cy="303" r="0.3"/><circle class="cls-9" cx="251.38" cy="229.9" r="0.3"/><circle class="cls-9" cx="245.68" cy="247.8" r="0.3"/><circle class="cls-9" cx="140.68" cy="251.9" r="0.3"/><circle class="cls-9" cx="174.18" cy="251.3" r="0.3"/><circle class="cls-9" cx="258.78" cy="245.2" r="0.3"/><circle class="cls-9" cx="255.28" cy="244.2" r="0.3"/><circle class="cls-9" cx="292.18" cy="230.8" r="0.3"/><circle class="cls-9" cx="265.98" cy="232.6" r="0.3"/><circle class="cls-9" cx="115.28" cy="243" r="0.3"/><circle class="cls-9" cx="103.08" cy="256.9" r="0.3"/><circle class="cls-9" cx="272.18" cy="271.8" r="0.3"/><circle class="cls-9" cx="319.38" cy="262.6" r="0.3"/><circle class="cls-9" cx="313.68" cy="280.6" r="0.3"/><circle class="cls-9" cx="208.68" cy="284.7" r="0.3"/><circle class="cls-9" cx="242.18" cy="284" r="0.3"/><circle class="cls-9" cx="326.78" cy="278" r="0.3"/><circle class="cls-9" cx="323.28" cy="277" r="0.3"/><circle class="cls-9" cx="360.18" cy="263.5" r="0.3"/><circle class="cls-9" cx="333.98" cy="265.4" r="0.3"/><circle class="cls-9" cx="183.28" cy="275.8" r="0.3"/><circle class="cls-9" cx="59.88" cy="225.9" r="0.3"/><circle class="cls-9" cx="171.08" cy="289.7" r="0.3"/><circle class="cls-9" cx="340.18" cy="304.5" r="0.3"/><circle class="cls-9" cx="476.78" cy="250.5" r="0.3"/><circle class="cls-9" cx="471.08" cy="268.4" r="0.3"/><circle class="cls-9" cx="366.08" cy="272.5" r="0.3"/><circle class="cls-9" cx="399.48" cy="271.9" r="0.3"/><circle class="cls-9" cx="484.18" cy="265.8" r="0.3"/><circle class="cls-9" cx="480.68" cy="264.8" r="0.3"/><circle class="cls-9" cx="517.58" cy="251.4" r="0.3"/><circle class="cls-9" cx="491.38" cy="253.2" r="0.3"/><circle class="cls-9" cx="340.68" cy="263.6" r="0.3"/><circle class="cls-9" cx="328.48" cy="277.5" r="0.3"/><circle class="cls-9" cx="497.58" cy="292.4" r="0.3"/><circle class="cls-9" cx="579.98" cy="264.1" r="0.3"/><circle class="cls-9" cx="574.28" cy="282" r="0.3"/><circle class="cls-9" cx="469.28" cy="286.1" r="0.3"/><circle class="cls-9" cx="502.68" cy="285.4" r="0.3"/><circle class="cls-9" cx="587.38" cy="279.4" r="0.3"/><circle class="cls-9" cx="583.88" cy="278.4" r="0.3"/><circle class="cls-9" cx="620.78" cy="265" r="0.3"/><circle class="cls-9" cx="594.58" cy="266.8" r="0.3"/><circle class="cls-9" cx="443.88" cy="277.2" r="0.3"/><circle class="cls-9" cx="431.68" cy="291.1" r="0.3"/><circle class="cls-9" cx="600.78" cy="305.9" r="0.3"/><circle class="cls-9" cx="711.28" cy="224.6" r="0.3"/><circle class="cls-9" cx="705.58" cy="242.6" r="0.3"/><circle class="cls-9" cx="600.58" cy="246.7" r="0.3"/><circle class="cls-9" cx="634.08" cy="246" r="0.3"/><circle class="cls-9" cx="718.68" cy="240" r="0.3"/><circle class="cls-9" cx="715.18" cy="239" r="0.3"/><circle class="cls-9" cx="752.08" cy="225.5" r="0.3"/><circle class="cls-9" cx="725.88" cy="227.4" r="0.3"/><circle class="cls-9" cx="575.18" cy="237.8" r="0.3"/><circle class="cls-9" cx="562.98" cy="251.7" r="0.3"/><circle class="cls-9" cx="732.08" cy="266.5" r="0.3"/><circle class="cls-9" cx="725.38" cy="277.3" r="0.3"/><circle class="cls-9" cx="719.68" cy="295.3" r="0.3"/><circle class="cls-9" cx="614.68" cy="299.4" r="0.3"/><circle class="cls-9" cx="648.18" cy="298.7" r="0.3"/><circle class="cls-9" cx="732.78" cy="292.7" r="0.3"/><circle class="cls-9" cx="729.28" cy="291.6" r="0.3"/><circle class="cls-9" cx="766.18" cy="278.2" r="0.3"/><circle class="cls-9" cx="739.98" cy="280.1" r="0.3"/><circle class="cls-9" cx="589.28" cy="290.5" r="0.3"/><circle class="cls-9" cx="577.08" cy="304.4" r="0.3"/><circle class="cls-9" cx="746.18" cy="319.2" r="0.3"/></g></g><ellipse class="cls-11" cx="41.31" cy="66.25" rx="93.5" ry="92.7"/></g></g></svg>